<svg id="svg" version="1.1" xmlns="http://www.w3.org/2000/svg" xmlns:xlink="http://www.w3.org/1999/xlink" width="400" height="300" viewBox="0, 0, 400,300"><g id="svgg"><path id="path0" d="M0.000 150.038 L 0.000 300.075 200.000 300.075 L 400.000 300.075 400.000 150.038 L 400.000 0.000 200.000 0.000 L 0.000 0.000 0.000 150.038 M140.585 26.996 C 145.930 27.766,150.091 28.764,152.633 29.889 C 153.151 30.119,153.673 30.308,153.788 30.308 C 153.901 30.308,154.423 30.498,154.943 30.731 C 155.460 30.965,156.767 31.534,157.839 31.996 C 158.910 32.458,160.411 33.197,161.170 33.638 C 161.920 34.079,162.840 34.531,163.195 34.644 C 163.550 34.757,163.841 34.975,163.841 35.129 C 163.841 35.283,163.973 35.409,164.135 35.409 C 164.441 35.409,166.894 36.940,168.539 38.158 C 169.060 38.544,169.789 39.062,170.159 39.310 C 173.041 41.242,179.088 46.943,182.874 51.313 C 188.971 58.358,195.078 68.051,198.643 76.369 C 200.020 79.590,200.260 79.931,200.577 79.155 C 202.741 73.831,207.655 64.672,210.535 60.566 C 211.091 59.768,212.048 58.406,212.654 57.539 C 218.370 49.358,226.992 41.103,235.080 36.062 C 239.720 33.169,248.577 29.107,250.243 29.107 C 250.560 29.107,250.901 28.988,250.991 28.842 C 251.081 28.696,252.068 28.416,253.185 28.220 C 254.301 28.024,255.484 27.746,255.814 27.602 C 258.411 26.473,269.327 26.133,275.319 26.996 C 297.741 30.224,314.455 43.955,324.073 67.067 C 324.460 68.007,325.519 71.144,325.890 72.468 C 327.261 77.367,327.446 78.210,328.609 84.771 C 329.421 89.371,329.209 107.046,328.285 111.328 C 328.121 112.071,327.793 113.893,327.547 115.379 C 326.951 118.997,325.826 123.988,324.844 127.382 C 323.881 130.696,321.021 139.081,320.749 139.370 C 320.601 139.527,320.480 139.845,320.480 140.078 C 320.481 140.439,318.892 144.320,317.265 147.937 C 316.291 150.097,313.239 156.263,312.137 158.290 C 311.501 159.445,310.416 161.470,309.708 162.791 C 308.990 164.111,308.230 165.404,307.998 165.665 C 307.760 165.926,307.577 166.212,307.577 166.301 C 307.571 166.478,305.014 170.680,302.618 174.431 C 301.791 175.717,299.857 178.553,298.308 180.733 C 296.751 182.913,295.015 185.371,294.434 186.197 C 293.370 187.699,286.257 196.803,285.579 197.519 C 285.381 197.728,284.615 198.642,283.876 199.550 C 275.651 209.658,260.498 225.206,247.451 236.914 C 245.531 238.631,241.330 242.315,239.916 243.511 C 238.941 244.336,237.595 245.488,236.926 246.070 C 234.151 248.483,224.746 256.145,223.122 257.314 C 222.661 257.644,222.135 258.056,221.947 258.229 C 221.471 258.666,218.743 260.790,217.724 261.515 C 217.260 261.845,216.189 262.668,215.343 263.342 C 213.871 264.511,206.037 270.319,204.644 271.268 C 204.280 271.515,203.425 272.153,202.742 272.686 C 200.721 274.260,199.495 274.194,197.299 272.391 C 197.131 272.255,194.626 270.413,191.725 268.296 C 185.581 263.815,171.474 252.899,170.743 252.063 C 170.661 251.969,169.512 251.024,168.192 249.963 C 165.800 248.047,155.426 239.185,154.510 238.282 C 154.240 238.022,152.899 236.797,151.515 235.559 C 143.261 228.175,128.958 213.803,122.257 206.159 C 119.860 203.424,119.273 202.759,118.968 202.434 C 118.790 202.250,117.730 200.953,116.597 199.550 C 115.461 198.147,114.452 196.932,114.347 196.849 C 114.091 196.650,108.759 189.860,107.427 188.043 C 106.840 187.256,105.870 185.948,105.251 185.137 C 104.630 184.327,104.126 183.525,104.126 183.355 C 104.121 183.185,104.015 183.046,103.879 183.046 C 103.741 183.046,103.295 182.539,102.882 181.920 C 95.091 170.249,92.791 166.565,89.372 160.317 C 87.340 156.619,81.920 145.509,81.920 145.064 C 81.921 144.976,81.667 144.337,81.357 143.644 C 79.801 140.169,77.194 132.871,75.920 128.432 C 75.561 127.194,75.080 125.506,74.841 124.681 C 74.601 123.856,74.265 122.506,74.091 121.680 C 71.691 110.283,71.130 105.502,71.142 96.624 C 71.151 87.745,71.757 83.109,74.111 73.818 C 77.811 59.204,91.429 40.277,101.560 35.661 C 101.981 35.469,102.326 35.227,102.326 35.123 C 102.320 34.821,111.478 30.308,112.091 30.308 C 112.190 30.308,112.713 30.121,113.233 29.893 C 114.661 29.264,117.931 28.267,119.280 28.046 C 119.941 27.938,120.885 27.719,121.380 27.559 C 124.851 26.434,134.683 26.146,140.585 26.996 " stroke="none" fill="#ec9c9c" fill-rule="evenodd"></path><path id="path1" d="M127.215 31.953 C 97.241 35.215,76.364 61.920,76.417 96.924 C 76.490 147.267,117.267 205.998,189.947 260.455 C 193.331 262.990,196.572 265.420,197.149 265.855 C 197.721 266.290,198.646 266.957,199.191 267.338 L 200.183 268.031 202.042 266.740 C 219.331 254.730,243.213 234.543,260.025 217.719 C 270.361 207.377,272.712 204.785,283.846 191.448 C 304.511 166.687,319.203 136.335,323.193 110.128 C 330.880 59.614,293.672 20.746,250.713 34.418 C 230.551 40.834,213.836 59.161,203.133 86.572 C 202.211 88.918,201.495 89.725,200.323 89.713 C 198.691 89.696,198.329 89.197,196.396 84.321 C 182.361 48.940,155.816 28.840,127.215 31.953 M158.884 107.858 C 160.421 108.762,161.686 110.528,161.973 112.193 C 162.221 113.649,162.116 113.628,164.323 112.651 C 167.621 111.190,172.388 111.177,175.613 112.620 C 177.511 113.471,177.444 113.499,177.930 111.686 C 179.110 107.252,184.509 105.633,187.778 108.728 C 191.490 112.242,187.030 118.514,183.210 115.152 C 182.171 114.236,181.824 112.528,182.679 112.528 C 183.051 112.528,183.522 112.928,183.906 113.578 C 185.281 115.915,188.600 113.599,187.588 111.005 C 186.211 107.484,181.149 107.824,179.558 111.543 C 178.790 113.319,179.014 114.570,180.326 115.993 C 185.560 121.675,184.358 130.464,177.729 134.929 L 175.880 136.174 177.742 137.378 C 178.760 138.041,179.853 138.857,180.156 139.192 C 180.701 139.799,180.711 139.797,182.251 138.570 C 194.161 129.081,210.999 137.099,211.052 152.288 C 211.090 164.714,196.118 170.530,186.791 161.708 C 185.881 160.849,185.093 160.201,185.037 160.268 C 184.981 160.335,184.477 161.335,183.919 162.491 C 182.420 165.583,179.416 168.500,176.097 170.077 C 173.031 171.530,172.114 172.522,171.633 174.865 C 171.090 177.483,171.162 177.390,169.921 177.288 L 168.794 177.194 168.462 175.334 C 167.950 172.484,166.748 171.113,163.787 170.025 C 160.760 168.913,157.739 165.821,155.740 161.790 L 154.797 159.889 153.076 161.530 C 143.851 170.330,129.144 165.180,128.777 153.020 C 128.301 137.318,145.199 128.827,157.471 138.600 L 159.053 139.859 160.472 138.693 C 161.250 138.052,162.405 137.220,163.034 136.845 L 164.177 136.163 162.335 134.959 C 155.840 130.720,154.549 121.762,159.599 116.083 C 161.020 114.480,161.174 113.443,160.271 111.454 C 158.381 107.295,152.138 107.687,152.138 111.965 C 152.130 114.573,155.556 115.695,156.160 113.286 C 156.431 112.183,157.543 112.238,157.530 113.353 C 157.491 116.505,152.951 117.013,151.287 114.052 C 148.830 109.689,154.344 105.197,158.884 107.858 M240.189 134.305 C 240.781 134.903,240.798 136.354,240.208 136.943 C 238.480 138.666,235.518 137.144,236.583 135.084 C 237.260 133.771,239.230 133.346,240.189 134.305 M219.855 140.960 C 219.751 141.744,219.593 142.926,219.498 143.586 L 219.325 144.786 219.982 143.586 C 222.711 138.600,226.549 137.899,226.149 142.459 C 226.050 143.574,226.055 144.284,226.158 144.036 C 227.150 141.646,229.754 139.429,231.374 139.589 C 232.850 139.735,233.049 140.310,232.582 143.195 C 231.671 148.833,231.893 149.667,233.851 147.947 C 234.790 147.118,234.948 146.757,235.407 144.257 C 236.151 140.180,236.482 139.535,237.804 139.535 C 239.251 139.535,239.375 140.006,238.733 143.180 C 238.040 146.600,238.019 147.825,238.636 148.442 C 239.421 149.230,241.558 146.975,241.565 145.347 C 241.571 141.935,242.773 139.535,244.458 139.535 C 245.620 139.535,245.650 139.651,244.991 142.224 C 244.420 144.453,244.569 145.165,245.307 143.736 C 246.651 141.134,248.509 139.535,250.186 139.535 C 251.891 139.535,252.087 140.710,251.162 145.589 C 250.740 147.812,250.872 148.537,251.697 148.537 C 252.800 148.537,253.863 146.991,253.863 145.390 C 253.861 140.993,259.001 137.725,261.688 140.412 C 263.760 142.492,262.412 145.724,258.864 147.142 C 257.231 147.794,257.147 147.876,257.610 148.340 C 258.562 149.292,260.316 148.987,261.809 147.611 C 263.259 146.274,263.766 146.288,263.766 147.665 C 263.766 150.874,257.515 152.780,255.390 150.219 C 254.857 149.576,254.624 149.607,253.328 150.488 C 252.498 151.051,251.834 151.238,250.655 151.238 C 247.853 151.238,247.452 150.078,248.345 144.561 C 248.824 141.608,246.729 144.201,245.293 148.340 C 244.348 151.063,244.330 151.089,243.276 151.179 C 242.420 151.253,242.173 151.150,242.016 150.654 C 241.772 149.887,241.456 149.880,240.423 150.619 C 239.041 151.608,237.066 151.543,236.077 150.476 C 235.374 149.718,235.366 149.717,234.639 150.284 C 231.546 152.701,228.196 151.017,228.955 147.427 C 229.562 144.555,229.612 143.436,229.132 143.436 C 228.620 143.436,227.042 145.995,226.540 147.637 C 225.510 151.010,225.368 151.238,224.292 151.238 C 222.763 151.238,222.537 150.557,222.783 146.683 C 222.959 143.891,222.924 143.436,222.533 143.436 C 222.022 143.436,220.135 147.171,219.804 148.837 C 219.370 151.028,217.460 152.184,216.706 150.713 C 215.626 148.605,216.396 141.058,217.808 139.910 C 219.038 138.910,220.052 139.430,219.855 140.960 M258.133 142.136 C 257.593 142.354,256.864 143.866,256.864 144.771 C 256.864 145.739,257.661 145.790,258.799 144.895 C 260.651 143.438,260.142 141.328,258.133 142.136 " stroke="none" fill="#9b0404" fill-rule="evenodd"></path><path id="path2" d="M129.305 26.834 C 129.236 26.903,127.761 27.114,126.030 27.302 C 115.243 28.472,104.598 33.087,95.578 40.504 C 94.190 41.645,88.462 47.430,87.549 48.612 C 87.103 49.190,86.314 50.203,85.794 50.863 C 82.921 54.517,79.888 59.848,77.344 65.716 C 68.336 86.500,70.208 118.385,81.937 143.958 C 82.258 144.657,82.521 145.291,82.521 145.365 C 82.521 145.581,85.125 151.070,87.071 154.955 C 88.874 158.555,92.161 164.526,93.862 167.292 C 94.370 168.117,95.152 169.400,95.601 170.143 C 100.060 177.520,110.450 191.767,116.610 198.950 C 123.987 207.554,124.248 207.843,131.183 215.142 C 149.463 234.379,175.643 256.752,198.546 272.709 C 199.851 273.618,200.858 273.536,202.416 272.393 C 203.147 271.857,206.048 269.730,208.862 267.667 C 214.326 263.662,222.505 257.369,227.134 253.610 C 230.777 250.651,236.951 245.542,238.110 244.528 C 238.605 244.095,240.765 242.212,242.911 240.345 C 247.116 236.685,248.012 235.873,254.148 230.158 C 283.024 203.264,305.753 173.271,317.138 147.037 C 320.444 139.419,320.780 138.610,320.780 138.267 C 320.780 138.106,320.967 137.550,321.195 137.030 C 323.112 132.654,326.573 119.844,327.369 114.179 C 327.531 113.023,327.793 111.402,327.951 110.575 C 329.065 104.756,328.981 89.042,327.802 82.671 C 326.812 77.322,325.392 71.724,324.508 69.682 C 324.273 69.140,324.076 68.533,324.071 68.332 C 324.065 68.131,323.800 67.427,323.481 66.767 C 323.162 66.107,322.897 65.479,322.891 65.371 C 322.863 64.834,320.253 59.638,318.652 56.932 C 309.057 40.714,293.175 29.821,275.619 27.418 C 245.107 23.241,216.425 43.112,200.954 79.146 C 200.340 80.575,199.990 80.739,199.680 79.745 C 199.565 79.374,198.564 77.179,197.457 74.869 C 195.726 71.257,194.873 69.643,192.141 64.816 C 183.233 49.078,167.091 35.146,151.792 29.992 C 145.337 27.817,130.417 25.722,129.305 26.834 M136.834 31.814 C 162.478 34.076,183.996 53.045,196.396 84.321 C 198.329 89.197,198.693 89.696,200.323 89.713 C 201.495 89.725,202.217 88.918,203.133 86.572 C 219.695 44.155,251.884 23.516,284.471 34.418 C 317.227 45.376,331.783 83.249,319.740 126.182 C 314.145 146.125,299.593 172.585,283.846 191.448 C 276.376 200.396,273.902 203.252,269.030 208.552 C 252.909 226.092,222.355 252.632,202.042 266.740 L 200.183 268.031 199.191 267.338 C 198.646 266.957,197.727 266.290,197.149 265.855 C 196.572 265.420,193.331 262.990,189.947 260.455 C 108.651 199.543,67.067 132.491,78.029 79.996 C 84.358 49.691,109.156 29.373,136.834 31.814 M153.938 107.343 C 150.245 108.731,149.582 114.090,152.908 115.668 C 155.062 116.690,157.505 115.467,157.530 113.353 C 157.543 112.238,156.437 112.183,156.160 113.286 C 155.556 115.695,152.138 114.573,152.138 111.965 C 152.138 107.687,158.382 107.295,160.271 111.454 C 161.174 113.443,161.024 114.480,159.599 116.083 C 154.557 121.753,155.848 130.721,162.313 134.945 L 164.134 136.135 162.116 137.471 C 150.805 144.963,151.867 165.643,163.787 170.025 C 166.748 171.113,167.955 172.484,168.462 175.334 L 168.794 177.194 169.921 177.288 C 171.162 177.390,171.096 177.483,171.633 174.865 C 172.114 172.522,173.039 171.530,176.097 170.077 C 188.391 164.236,189.420 144.930,177.837 137.439 L 175.880 136.174 177.729 134.929 C 184.358 130.464,185.563 121.675,180.326 115.993 C 179.014 114.570,178.798 113.319,179.558 111.543 C 181.149 107.824,186.215 107.484,187.588 111.005 C 188.600 113.599,185.285 115.915,183.906 113.578 C 183.522 112.928,183.055 112.528,182.679 112.528 C 181.824 112.528,182.170 114.236,183.210 115.152 C 187.030 118.514,191.490 112.242,187.778 108.728 C 184.509 105.633,179.119 107.252,177.930 111.686 C 177.444 113.499,177.514 113.471,175.613 112.620 C 172.388 111.177,167.628 111.190,164.323 112.651 C 162.116 113.628,162.224 113.649,161.973 112.193 C 161.363 108.657,157.173 106.128,153.938 107.343 M174.949 114.822 C 185.106 119.602,182.374 133.747,171.066 134.929 C 166.237 135.433,160.997 132.324,159.360 127.980 C 155.988 119.039,165.983 110.603,174.949 114.822 M164.338 122.979 C 163.172 124.268,164.108 126.332,165.858 126.332 C 167.442 126.332,168.362 123.985,167.193 122.927 C 166.465 122.268,164.956 122.296,164.338 122.979 M172.710 123.098 C 171.325 125.076,173.499 127.250,175.477 125.864 C 176.318 125.276,176.384 123.641,175.595 122.927 C 174.791 122.199,173.277 122.288,172.710 123.098 M167.523 128.676 C 167.041 128.982,168.375 131.008,169.239 131.282 C 170.188 131.583,170.989 131.181,171.791 130.000 C 172.715 128.640,172.467 128.441,169.842 128.441 C 168.770 128.441,167.726 128.547,167.523 128.676 M237.428 134.034 C 236.561 134.383,236.080 135.919,236.593 136.702 C 237.753 138.472,240.660 137.709,240.660 135.634 C 240.660 134.170,239.060 133.378,237.428 134.034 M173.464 137.913 C 175.231 138.432,176.563 139.154,178.320 140.545 C 180.643 142.384,179.827 142.585,170.004 142.591 C 160.659 142.597,159.727 142.430,161.215 141.019 C 164.505 137.900,169.289 136.687,173.464 137.913 M217.808 139.910 C 216.396 141.058,215.626 148.605,216.706 150.713 C 217.460 152.184,219.370 151.028,219.804 148.837 C 220.135 147.171,222.022 143.436,222.533 143.436 C 222.924 143.436,222.959 143.891,222.783 146.683 C 222.537 150.557,222.763 151.238,224.292 151.238 C 225.368 151.238,225.510 151.010,226.540 147.637 C 227.042 145.995,228.620 143.436,229.132 143.436 C 229.612 143.436,229.562 144.555,228.955 147.427 C 228.196 151.017,231.546 152.701,234.639 150.284 C 235.366 149.717,235.374 149.718,236.077 150.476 C 237.066 151.543,239.041 151.608,240.423 150.619 C 241.456 149.880,241.772 149.887,242.016 150.654 C 242.173 151.150,242.420 151.253,243.276 151.179 C 244.330 151.089,244.348 151.063,245.293 148.340 C 246.729 144.201,248.824 141.608,248.345 144.561 C 247.452 150.078,247.853 151.238,250.655 151.238 C 251.834 151.238,252.498 151.051,253.328 150.488 C 254.624 149.607,254.857 149.576,255.390 150.219 C 257.515 152.780,263.766 150.874,263.766 147.665 C 263.766 146.288,263.259 146.274,261.809 147.611 C 260.316 148.987,258.562 149.292,257.610 148.340 C 257.147 147.876,257.233 147.794,258.864 147.142 C 262.412 145.724,263.768 142.492,261.688 140.412 C 259.001 137.725,253.863 140.993,253.863 145.390 C 253.863 146.991,252.800 148.537,251.697 148.537 C 250.872 148.537,250.740 147.812,251.162 145.589 C 252.087 140.710,251.898 139.535,250.186 139.535 C 248.509 139.535,246.653 141.134,245.307 143.736 C 244.569 145.165,244.420 144.453,244.991 142.224 C 245.650 139.651,245.627 139.535,244.458 139.535 C 242.773 139.535,241.579 141.935,241.565 145.347 C 241.558 146.975,239.424 149.230,238.636 148.442 C 238.019 147.825,238.042 146.600,238.733 143.180 C 239.375 140.006,239.255 139.535,237.804 139.535 C 236.482 139.535,236.155 140.180,235.407 144.257 C 234.948 146.757,234.796 147.118,233.851 147.947 C 231.893 149.667,231.670 148.833,232.582 143.195 C 233.049 140.310,232.856 139.735,231.374 139.589 C 229.754 139.429,227.154 141.646,226.158 144.036 C 226.055 144.284,226.051 143.574,226.149 142.459 C 226.549 137.899,222.710 138.600,219.982 143.586 L 219.325 144.786 219.498 143.586 C 220.112 139.333,220.129 139.535,219.154 139.535 C 218.667 139.535,218.062 139.704,217.808 139.910 M259.819 142.461 C 260.188 143.166,259.791 144.115,258.799 144.895 C 257.107 146.226,256.241 145.211,257.308 143.148 C 257.965 141.878,259.319 141.507,259.819 142.461 M169.992 148.618 C 172.798 148.616,176.881 148.515,179.065 148.393 L 183.035 148.171 183.363 149.029 C 183.881 150.386,184.089 153.814,183.669 154.074 C 182.249 154.952,157.143 154.863,156.257 153.977 C 155.940 153.659,156.402 149.164,156.822 148.484 C 156.949 148.278,158.332 148.249,160.952 148.398 C 163.119 148.521,167.187 148.620,169.992 148.618 M167.442 160.723 C 171.410 160.832,175.801 160.775,178.091 160.586 C 182.729 160.202,182.782 160.234,181.290 162.511 C 178.672 166.507,177.782 166.833,169.542 166.810 C 161.994 166.789,161.280 166.506,158.718 162.508 C 157.371 160.407,157.452 160.109,159.304 160.355 C 160.066 160.456,163.728 160.621,167.442 160.723 " stroke="none" fill="#500c04" fill-rule="evenodd"></path><path id="path3" d="M167.226 114.300 C 155.944 117.205,156.553 132.350,168.035 134.432 C 176.309 135.933,183.162 128.377,180.348 120.856 C 178.548 116.045,172.393 112.970,167.226 114.300 M167.442 122.731 C 168.777 124.066,167.719 126.632,165.833 126.632 C 163.865 126.632,162.813 124.225,164.153 122.787 C 164.947 121.934,166.617 121.906,167.442 122.731 M175.844 122.731 C 177.179 124.066,176.121 126.632,174.236 126.632 C 172.267 126.632,171.215 124.225,172.555 122.787 C 173.350 121.934,175.019 121.906,175.844 122.731 M172.496 128.397 C 173.238 128.867,171.505 131.322,170.076 131.826 C 169.438 132.051,167.905 130.819,167.253 129.557 C 166.624 128.342,166.991 128.141,169.842 128.141 C 171.080 128.141,172.275 128.256,172.496 128.397 M166.849 138.196 C 165.047 138.702,163.230 139.678,161.709 140.957 L 160.725 141.785 161.608 141.975 C 162.093 142.079,165.866 142.165,169.992 142.165 C 174.119 142.165,177.888 142.079,178.370 141.975 L 179.246 141.785 178.170 140.841 C 175.225 138.257,170.535 137.161,166.849 138.196 M156.670 150.022 C 156.488 150.872,156.339 152.088,156.339 152.724 L 156.339 153.881 159.565 154.120 C 163.699 154.426,176.904 154.422,180.762 154.114 L 183.729 153.876 183.545 151.701 C 183.256 148.281,183.451 148.443,179.927 148.698 C 176.010 148.981,163.968 148.980,160.046 148.697 L 157.002 148.477 156.670 150.022 M158.298 161.168 C 158.573 162.033,160.462 164.609,161.578 165.641 L 162.389 166.392 170.049 166.392 L 177.710 166.392 179.188 164.784 C 180.532 163.322,182.041 160.935,181.783 160.678 C 181.725 160.620,179.454 160.712,176.736 160.882 C 172.108 161.170,163.827 161.050,159.831 160.637 C 158.084 160.456,158.074 160.460,158.298 161.168 " stroke="none" fill="#f9f904" fill-rule="evenodd"></path><path id="path4" d="M130.608 26.630 C 131.887 26.686,133.980 26.686,135.259 26.630 C 136.538 26.573,135.491 26.527,132.933 26.527 C 130.375 26.527,129.329 26.573,130.608 26.630 M265.206 26.630 C 266.575 26.686,268.736 26.686,270.007 26.629 C 271.278 26.573,270.158 26.528,267.517 26.528 C 264.876 26.528,263.836 26.574,265.206 26.630 M143.161 27.415 C 143.230 27.474,143.691 27.613,144.186 27.724 C 144.843 27.871,144.965 27.843,144.636 27.621 C 144.231 27.346,142.860 27.155,143.161 27.415 M277.894 27.415 C 277.963 27.474,278.425 27.613,278.920 27.724 C 279.577 27.871,279.699 27.843,279.370 27.621 C 278.965 27.346,277.593 27.155,277.894 27.415 M91.516 43.736 L 88.972 46.362 91.598 43.818 C 93.042 42.418,94.224 41.237,94.224 41.192 C 94.224 40.974,93.879 41.297,91.516 43.736 M225.640 43.136 L 224.606 44.261 225.731 43.227 C 226.779 42.264,226.995 42.011,226.766 42.011 C 226.715 42.011,226.209 42.517,225.640 43.136 M309.227 44.111 C 309.872 44.771,310.467 45.311,310.549 45.311 C 310.632 45.311,310.172 44.771,309.527 44.111 C 308.883 43.451,308.288 42.911,308.205 42.911 C 308.123 42.911,308.583 43.451,309.227 44.111 M175.844 44.261 C 176.404 44.839,176.929 45.311,177.012 45.311 C 177.094 45.311,176.704 44.839,176.144 44.261 C 175.584 43.683,175.059 43.211,174.976 43.211 C 174.894 43.211,175.284 43.683,175.844 44.261 M221.747 46.737 L 219.805 48.762 221.830 46.820 C 223.712 45.017,223.993 44.711,223.772 44.711 C 223.726 44.711,222.815 45.623,221.747 46.737 M180.645 49.062 C 181.205 49.640,181.731 50.113,181.813 50.113 C 181.896 50.113,181.505 49.640,180.945 49.062 C 180.385 48.485,179.860 48.012,179.777 48.012 C 179.695 48.012,180.085 48.485,180.645 49.062 M217.838 50.938 L 216.804 52.063 217.929 51.029 C 218.977 50.066,219.193 49.812,218.964 49.812 C 218.913 49.812,218.407 50.319,217.838 50.938 M72.468 80.420 C 72.354 80.939,72.324 81.426,72.400 81.502 C 72.476 81.579,72.625 81.210,72.731 80.683 C 72.981 79.432,72.738 79.189,72.468 80.420 M328.352 84.321 C 328.352 84.899,328.413 85.135,328.489 84.846 C 328.564 84.557,328.564 84.085,328.489 83.796 C 328.413 83.507,328.352 83.743,328.352 84.321 M71.500 87.622 C 71.500 88.365,71.558 88.668,71.630 88.297 C 71.701 87.926,71.701 87.318,71.630 86.947 C 71.558 86.575,71.500 86.879,71.500 87.622 M71.204 91.073 C 71.206 91.898,71.264 92.200,71.333 91.744 C 71.402 91.288,71.400 90.613,71.329 90.243 C 71.258 89.874,71.201 90.248,71.204 91.073 M71.204 102.476 C 71.206 103.301,71.264 103.603,71.333 103.147 C 71.402 102.691,71.400 102.015,71.329 101.646 C 71.258 101.277,71.201 101.650,71.204 102.476 M328.952 103.226 C 328.952 103.803,329.014 104.040,329.089 103.751 C 329.165 103.462,329.165 102.989,329.089 102.701 C 329.014 102.412,328.952 102.648,328.952 103.226 M71.504 106.077 C 71.506 106.902,71.564 107.204,71.633 106.748 C 71.702 106.291,71.700 105.616,71.629 105.247 C 71.558 104.878,71.501 105.251,71.504 106.077 M328.352 109.827 C 328.352 110.405,328.413 110.641,328.489 110.353 C 328.564 110.064,328.564 109.591,328.489 109.302 C 328.413 109.014,328.352 109.250,328.352 109.827 M143.436 135.920 C 129.539 137.921,124.493 157.469,136.381 163.251 C 141.666 165.821,148.388 164.623,152.669 160.347 C 154.222 158.796,154.246 158.744,154.019 157.478 C 153.132 152.523,154.108 146.923,156.565 142.877 L 157.935 140.620 156.833 139.667 C 153.560 136.837,147.955 135.270,143.436 135.920 M192.198 135.810 C 191.868 135.882,190.855 136.086,189.947 136.265 C 186.338 136.975,181.644 139.867,182.364 140.937 C 185.846 146.114,187.264 152.478,186.075 157.594 C 185.226 161.250,193.479 165.470,199.498 164.458 C 215.938 161.692,211.981 137.064,194.899 135.832 C 193.743 135.749,192.528 135.739,192.198 135.810 M281.602 202.026 L 280.720 203.001 281.695 202.119 C 282.232 201.635,282.671 201.196,282.671 201.144 C 282.671 200.912,282.423 201.116,281.602 202.026 M277.400 206.827 L 276.519 207.802 277.494 206.921 C 278.031 206.436,278.470 205.997,278.470 205.945 C 278.470 205.714,278.222 205.918,277.400 206.827 M124.081 208.252 C 124.726 208.912,125.321 209.452,125.403 209.452 C 125.486 209.452,125.026 208.912,124.381 208.252 C 123.736 207.592,123.142 207.052,123.059 207.052 C 122.976 207.052,123.436 207.592,124.081 208.252 M271.268 213.503 C 270.539 214.246,270.010 214.854,270.093 214.854 C 270.175 214.854,270.839 214.246,271.568 213.503 C 272.297 212.761,272.826 212.153,272.743 212.153 C 272.661 212.153,271.997 212.761,271.268 213.503 M132.033 216.748 C 132.033 216.800,132.472 217.239,133.008 217.723 L 133.983 218.605 133.102 217.629 C 132.281 216.720,132.033 216.516,132.033 216.748 M137.584 222.356 C 139.560 224.336,141.243 225.956,141.326 225.956 C 141.408 225.956,139.860 224.336,137.884 222.356 C 135.909 220.375,134.225 218.755,134.143 218.755 C 134.060 218.755,135.609 220.375,137.584 222.356 M255.203 229.632 L 253.713 231.208 255.289 229.719 C 256.155 228.900,256.864 228.191,256.864 228.143 C 256.864 227.919,256.586 228.169,255.203 229.632 M146.587 231.058 C 147.231 231.718,147.826 232.258,147.909 232.258 C 147.991 232.258,147.531 231.718,146.887 231.058 C 146.242 230.398,145.647 229.857,145.565 229.857 C 145.482 229.857,145.942 230.398,146.587 231.058 M244.992 238.935 L 244.111 239.910 245.086 239.029 C 245.995 238.207,246.199 237.959,245.968 237.959 C 245.916 237.959,245.477 238.398,244.992 238.935 M155.439 238.954 C 155.439 239.005,155.878 239.444,156.414 239.929 L 157.389 240.810 156.508 239.835 C 155.686 238.926,155.439 238.722,155.439 238.954 M242.592 241.035 L 241.710 242.011 242.686 241.129 C 243.222 240.644,243.661 240.206,243.661 240.154 C 243.661 239.922,243.413 240.126,242.592 241.035 M187.847 265.375 C 187.847 265.458,188.252 265.814,188.747 266.167 C 189.242 266.519,189.647 266.740,189.647 266.658 C 189.647 266.575,189.242 266.219,188.747 265.866 C 188.252 265.514,187.847 265.293,187.847 265.375 " stroke="none" fill="#be7575" fill-rule="evenodd"></path><path id="path5" d="M166.627 114.147 C 155.557 117.757,156.389 132.327,167.804 134.775 C 173.804 136.062,180.653 131.524,181.098 125.967 L 181.225 124.381 180.956 125.836 C 178.624 138.433,159.153 136.996,159.200 124.231 C 159.247 111.535,178.632 110.372,180.956 122.926 L 181.225 124.381 181.102 122.829 C 180.624 116.792,172.837 112.121,166.627 114.147 M164.153 122.787 C 162.813 124.225,163.865 126.632,165.833 126.632 C 167.719 126.632,168.777 124.066,167.442 122.731 C 166.617 121.906,164.947 121.934,164.153 122.787 M172.555 122.787 C 171.215 124.225,172.267 126.632,174.236 126.632 C 176.121 126.632,177.179 124.066,175.844 122.731 C 175.019 121.906,173.350 121.934,172.555 122.787 M167.193 122.927 C 168.362 123.985,167.442 126.332,165.858 126.332 C 164.108 126.332,163.172 124.268,164.338 122.979 C 164.956 122.296,166.465 122.268,167.193 122.927 M175.595 122.927 C 176.384 123.641,176.318 125.276,175.477 125.864 C 173.499 127.250,171.325 125.076,172.710 123.098 C 173.277 122.288,174.791 122.199,175.595 122.927 M167.189 128.397 C 166.268 128.980,168.987 132.209,170.076 131.826 C 170.852 131.552,171.944 130.491,172.450 129.518 C 173.060 128.345,172.673 128.141,169.842 128.141 C 168.605 128.141,167.410 128.256,167.189 128.397 M172.162 128.676 C 172.644 128.982,171.310 131.008,170.446 131.282 C 169.497 131.583,168.696 131.181,167.894 130.000 C 166.970 128.640,167.218 128.441,169.842 128.441 C 170.915 128.441,171.959 128.547,172.162 128.676 M166.115 138.066 C 163.835 138.849,160.540 141.124,160.540 141.914 C 160.540 142.424,162.935 142.595,170.004 142.591 C 179.827 142.585,180.643 142.384,178.320 140.545 C 174.524 137.540,170.199 136.661,166.115 138.066 M175.194 138.962 C 176.239 139.476,177.578 140.322,178.170 140.841 L 179.246 141.785 178.370 141.975 C 177.888 142.079,174.119 142.165,169.992 142.165 C 165.866 142.165,162.093 142.079,161.608 141.975 L 160.725 141.785 161.709 140.957 C 165.654 137.639,170.921 136.859,175.194 138.962 M156.756 148.664 C 156.651 148.939,156.649 149.247,156.752 149.350 C 156.855 149.453,156.939 149.310,156.939 149.033 C 156.939 148.523,160.543 148.507,167.442 148.987 C 168.515 149.061,172.424 148.992,176.129 148.834 C 181.403 148.608,182.923 148.626,183.129 148.916 C 183.321 149.187,183.358 149.166,183.267 148.837 C 183.170 148.485,182.657 148.393,180.919 148.415 C 179.696 148.430,175.521 148.484,171.643 148.534 C 167.764 148.585,162.871 148.523,160.770 148.396 C 157.352 148.190,156.928 148.218,156.756 148.664 M183.566 151.582 L 183.729 153.876 180.762 154.114 C 176.910 154.422,163.701 154.426,159.581 154.121 L 156.372 153.883 156.249 152.858 C 156.130 151.862,156.127 151.865,156.158 152.959 C 156.201 154.515,156.811 154.587,169.992 154.590 C 184.794 154.594,184.666 154.632,183.687 150.488 C 183.461 149.528,183.436 149.748,183.566 151.582 M157.717 160.496 C 157.630 160.637,157.764 161.008,158.015 161.321 C 158.455 161.870,158.464 161.867,158.291 161.235 C 158.137 160.672,158.251 160.563,159.101 160.458 L 160.090 160.336 158.982 160.288 C 158.373 160.262,157.804 160.355,157.717 160.496 M181.170 160.452 C 181.542 160.523,181.845 160.645,181.845 160.723 C 181.845 161.231,180.470 163.377,179.260 164.757 C 178.020 166.172,177.981 166.251,178.976 165.341 C 180.305 164.125,182.511 160.888,182.272 160.502 C 182.183 160.358,181.747 160.258,181.303 160.281 C 180.595 160.317,180.579 160.338,181.170 160.452 M161.059 160.757 C 161.591 160.823,162.537 160.824,163.159 160.759 C 163.782 160.694,163.346 160.640,162.191 160.639 C 161.035 160.637,160.526 160.690,161.059 160.757 M177.269 160.757 C 177.806 160.824,178.683 160.824,179.220 160.757 C 179.756 160.691,179.317 160.636,178.245 160.636 C 177.172 160.636,176.733 160.691,177.269 160.757 M168.104 161.062 C 169.211 161.120,171.101 161.120,172.305 161.063 C 173.509 161.006,172.603 160.959,170.293 160.959 C 167.982 160.958,166.997 161.005,168.104 161.062 M158.943 162.868 C 159.234 163.406,160.078 164.419,160.819 165.119 L 162.165 166.392 160.978 165.025 C 160.324 164.274,159.480 163.261,159.102 162.775 L 158.414 161.890 158.943 162.868 M163.691 166.590 C 165.610 166.845,173.686 166.842,175.844 166.587 C 176.752 166.480,174.051 166.392,169.842 166.392 C 165.634 166.392,162.866 166.481,163.691 166.590 " stroke="none" fill="#a4990d" fill-rule="evenodd"></path><path id="path6" d="M178.232 46.587 C 178.968 47.371,179.609 48.012,179.657 48.012 C 179.883 48.012,179.644 47.743,178.320 46.499 L 176.894 45.161 178.232 46.587 M71.214 94.224 C 71.214 95.296,71.268 95.735,71.335 95.199 C 71.401 94.662,71.401 93.785,71.335 93.248 C 71.268 92.712,71.214 93.151,71.214 94.224 M71.216 99.175 C 71.218 100.330,71.272 100.766,71.337 100.143 C 71.402 99.521,71.401 98.576,71.334 98.043 C 71.268 97.510,71.215 98.020,71.216 99.175 M141.102 135.636 C 133.393 137.911,128.719 144.815,129.106 153.356 C 129.561 163.408,140.679 168.659,150.219 163.327 C 152.143 162.251,154.539 159.747,154.539 158.812 C 154.539 158.102,154.476 158.136,153.637 159.294 C 150.992 162.946,145.086 165.239,140.310 164.470 C 123.297 161.731,128.123 135.903,145.659 135.845 C 150.725 135.829,158.364 139.095,157.707 140.997 C 157.586 141.347,157.666 141.320,157.989 140.903 C 158.633 140.070,158.592 139.979,157.037 138.792 C 152.593 135.398,146.198 134.132,141.102 135.636 M189.112 135.616 C 186.879 136.254,183.898 137.729,182.484 138.895 C 181.339 139.839,181.366 140.314,182.649 141.785 C 183.207 142.425,183.290 142.468,182.936 141.935 C 181.997 140.522,182.005 140.361,183.069 139.464 C 185.697 137.248,190.156 135.788,194.150 135.836 C 211.575 136.048,216.354 161.622,199.498 164.458 C 194.895 165.232,187.118 162.244,186.199 159.348 C 185.990 158.688,185.446 158.796,185.446 159.497 C 185.446 161.838,192.551 165.341,197.299 165.341 C 208.863 165.341,214.463 153.659,208.081 142.853 C 204.443 136.695,196.259 133.572,189.112 135.616 M129.632 214.104 C 130.192 214.681,130.718 215.154,130.800 215.154 C 130.883 215.154,130.492 214.681,129.932 214.104 C 129.373 213.526,128.847 213.053,128.764 213.053 C 128.682 213.053,129.073 213.526,129.632 214.104 M258.801 226.032 L 257.614 227.307 258.890 226.121 C 260.076 225.018,260.303 224.756,260.076 224.756 C 260.027 224.756,259.453 225.330,258.801 226.032 " stroke="none" fill="#b26262" fill-rule="evenodd"></path><path id="path7" d="M221.747 47.037 L 219.805 49.062 221.830 47.120 C 223.712 45.317,223.993 45.011,223.772 45.011 C 223.726 45.011,222.815 45.923,221.747 47.037 M157.710 141.292 C 156.219 143.653,154.852 146.264,154.859 146.737 C 154.863 146.984,155.264 146.326,155.751 145.275 C 156.237 144.223,157.116 142.693,157.704 141.875 C 158.292 141.056,158.732 140.277,158.682 140.143 C 158.631 140.009,158.194 140.526,157.710 141.292 M180.945 140.041 C 180.945 140.154,181.204 140.525,181.519 140.866 C 181.835 141.207,182.578 142.225,183.170 143.129 C 183.762 144.033,184.246 144.646,184.246 144.490 C 184.246 144.093,181.444 139.865,181.170 139.848 C 181.047 139.841,180.945 139.928,180.945 140.041 M184.246 144.951 C 184.246 145.026,184.510 145.781,184.833 146.630 C 186.146 150.083,186.302 154.555,185.267 159.040 C 185.138 159.598,185.172 159.680,185.397 159.360 C 186.504 157.787,186.521 151.055,185.427 147.472 C 184.906 145.766,184.246 144.356,184.246 144.951 M154.147 149.198 C 153.766 150.806,153.656 153.906,153.924 155.439 L 154.214 157.089 154.099 155.139 C 154.035 154.066,154.097 152.176,154.235 150.938 C 154.488 148.673,154.450 147.920,154.147 149.198 " stroke="none" fill="#9c5651" fill-rule="evenodd"></path><path id="path8" d="M125.506 27.214 C 125.795 27.289,126.268 27.289,126.557 27.214 C 126.845 27.138,126.609 27.076,126.032 27.076 C 125.454 27.076,125.218 27.138,125.506 27.214 M139.010 27.214 C 139.299 27.289,139.771 27.289,140.060 27.214 C 140.349 27.138,140.113 27.076,139.535 27.076 C 138.957 27.076,138.721 27.138,139.010 27.214 M260.240 27.214 C 260.529 27.289,261.002 27.289,261.290 27.214 C 261.579 27.138,261.343 27.076,260.765 27.076 C 260.188 27.076,259.951 27.138,260.240 27.214 M273.743 27.214 C 274.032 27.289,274.505 27.289,274.794 27.214 C 275.083 27.138,274.846 27.076,274.269 27.076 C 273.691 27.076,273.455 27.138,273.743 27.214 M91.362 44.186 L 89.872 45.761 91.448 44.272 C 92.314 43.453,93.023 42.744,93.023 42.697 C 93.023 42.473,92.745 42.722,91.362 44.186 M178.095 46.812 C 179.739 48.462,181.152 49.812,181.234 49.812 C 181.317 49.812,180.039 48.462,178.395 46.812 C 176.750 45.161,175.338 43.811,175.255 43.811 C 175.173 43.811,176.450 45.161,178.095 46.812 M218.586 50.488 L 217.704 51.463 218.680 50.582 C 219.216 50.097,219.655 49.658,219.655 49.606 C 219.655 49.374,219.407 49.579,218.586 50.488 M328.672 90.623 C 328.672 91.530,328.728 91.902,328.797 91.448 C 328.866 90.994,328.866 90.251,328.797 89.797 C 328.728 89.344,328.672 89.715,328.672 90.623 M71.500 91.523 C 71.500 92.266,71.558 92.569,71.630 92.198 C 71.701 91.827,71.701 91.219,71.630 90.848 C 71.558 90.476,71.500 90.780,71.500 91.523 M328.996 96.924 C 328.996 98.822,329.044 99.599,329.104 98.650 C 329.164 97.701,329.164 96.148,329.104 95.199 C 329.044 94.250,328.996 95.026,328.996 96.924 M71.494 101.875 C 71.497 102.536,71.558 102.770,71.630 102.397 C 71.702 102.024,71.699 101.484,71.624 101.197 C 71.549 100.910,71.490 101.215,71.494 101.875 M328.675 103.076 C 328.677 104.066,328.733 104.435,328.800 103.896 C 328.866 103.356,328.865 102.546,328.797 102.095 C 328.728 101.644,328.673 102.086,328.675 103.076 M143.586 134.624 C 136.501 135.711,130.875 140.775,129.156 147.612 C 125.866 160.697,137.699 170.091,149.767 163.976 C 151.343 163.178,154.839 160.125,154.839 159.548 C 154.839 159.383,154.102 159.996,153.202 160.911 C 144.532 169.720,129.635 165.049,129.106 153.356 C 128.432 138.467,143.675 129.869,156.075 138.143 C 159.080 140.149,159.192 140.200,157.839 138.951 C 154.629 135.986,147.942 133.956,143.586 134.624 M191.898 134.603 C 191.568 134.678,190.555 134.889,189.647 135.072 C 186.791 135.646,180.419 139.108,181.052 139.741 C 181.136 139.825,181.849 139.402,182.637 138.800 C 195.327 129.110,213.193 139.441,210.506 154.915 C 208.672 165.476,194.847 169.088,186.722 161.129 C 185.855 160.281,185.146 159.714,185.146 159.870 C 185.146 160.509,188.574 163.332,190.371 164.173 C 202.919 170.044,214.549 159.741,210.250 146.563 C 207.732 138.846,198.806 133.028,191.898 134.603 M276.500 207.427 L 275.619 208.402 276.594 207.521 C 277.131 207.036,277.569 206.597,277.569 206.546 C 277.569 206.314,277.322 206.518,276.500 207.427 M124.231 208.046 C 124.231 208.098,124.670 208.536,125.206 209.021 L 126.182 209.902 125.300 208.927 C 124.479 208.018,124.231 207.814,124.231 208.046 M128.882 213.053 C 129.695 213.878,130.428 214.554,130.510 214.554 C 130.593 214.554,129.995 213.878,129.182 213.053 C 128.369 212.228,127.637 211.553,127.554 211.553 C 127.472 211.553,128.069 212.228,128.882 213.053 M269.606 214.929 L 268.117 216.504 269.692 215.015 C 271.156 213.631,271.405 213.353,271.182 213.353 C 271.134 213.353,270.425 214.062,269.606 214.929 M137.134 221.605 C 139.688 224.164,141.846 226.257,141.928 226.257 C 142.011 226.257,139.989 224.164,137.434 221.605 C 134.880 219.047,132.723 216.954,132.640 216.954 C 132.558 216.954,134.580 219.047,137.134 221.605 M256.095 228.432 L 255.214 229.407 256.189 228.526 C 256.725 228.041,257.164 227.602,257.164 227.551 C 257.164 227.319,256.917 227.523,256.095 228.432 M145.236 229.407 C 145.796 229.985,146.322 230.458,146.404 230.458 C 146.487 230.458,146.096 229.985,145.536 229.407 C 144.977 228.830,144.451 228.357,144.368 228.357 C 144.286 228.357,144.676 228.830,145.236 229.407 M251.447 232.783 L 250.413 233.908 251.538 232.874 C 252.585 231.912,252.801 231.658,252.572 231.658 C 252.522 231.658,252.015 232.164,251.447 232.783 M149.137 232.952 C 149.137 233.004,149.576 233.443,150.113 233.927 L 151.088 234.809 150.206 233.833 C 149.385 232.924,149.137 232.720,149.137 232.952 M153.338 236.909 C 153.898 237.487,154.424 237.959,154.506 237.959 C 154.589 237.959,154.198 237.487,153.638 236.909 C 153.079 236.332,152.553 235.859,152.470 235.859 C 152.388 235.859,152.778 236.332,153.338 236.909 M155.139 238.353 C 155.139 238.405,155.578 238.844,156.114 239.329 L 157.089 240.210 156.208 239.235 C 155.386 238.326,155.139 238.122,155.139 238.353 " stroke="none" fill="#a44444" fill-rule="evenodd"></path></g></svg>